<svg width="18" height="12" viewBox="0 0 18 12" fill="none" xmlns="http://www.w3.org/2000/svg">
<path d="M8 12C7.71667 12 7.479 11.904 7.287 11.712C7.095 11.52 6.99934 11.2827 7 11C7 10.7167 7.096 10.479 7.288 10.287C7.48 10.095 7.71734 9.99934 8 10H10C10.2833 10 10.521 10.096 10.713 10.288C10.905 10.48 11.0007 10.7173 11 11C11 11.2833 10.904 11.521 10.712 11.713C10.52 11.905 10.2827 12.0007 10 12H8ZM1 2C0.71667 2 0.479003 1.904 0.287003 1.712C0.0950034 1.52 -0.000663206 1.28267 3.46021e-06 1C3.46021e-06 0.71667 0.0960036 0.479004 0.288004 0.287004C0.480004 0.0950036 0.717337 -0.000663206 1 3.4602e-06H17C17.2833 3.4602e-06 17.521 0.0960036 17.713 0.288004C17.905 0.480004 18.0007 0.717337 18 1C18 1.28334 17.904 1.521 17.712 1.713C17.52 1.905 17.2827 2.00067 17 2H1ZM4 7C3.71667 7 3.479 6.904 3.287 6.712C3.095 6.52 2.99934 6.28267 3 6C3 5.71667 3.096 5.479 3.288 5.287C3.48 5.095 3.71734 4.99934 4 5H14C14.2833 5 14.521 5.096 14.713 5.288C14.905 5.48 15.0007 5.71734 15 6C15 6.28334 14.904 6.521 14.712 6.713C14.52 6.905 14.2827 7.00067 14 7H4Z" fill="white"/>
</svg>
